<svg width="24" height="18" viewBox="0 0 24 18" fill="none" xmlns="http://www.w3.org/2000/svg">
<g id="Layer 2">
<g id="Group">
<path id="Vector" d="M6.98333 7.91476C7.34391 7.91765 7.69721 7.80982 7.99844 7.60492C8.29968 7.40003 8.5353 7.1073 8.67545 6.76383C8.81559 6.42036 8.85395 6.04161 8.78566 5.67558C8.71737 5.30955 8.54551 4.97272 8.29186 4.70776C8.03821 4.44281 7.71418 4.26166 7.36084 4.18728C7.0075 4.11289 6.64075 4.14862 6.30707 4.28993C5.97339 4.43124 5.6878 4.67178 5.48649 4.98105C5.28518 5.29033 5.17721 5.65442 5.17627 6.0272C5.17624 6.52446 5.36603 7.00164 5.70439 7.35508C6.04274 7.70851 6.50234 7.90964 6.98333 7.91476ZM6.98333 5.11747C7.15795 5.11457 7.32946 5.16545 7.47602 5.26364C7.62258 5.36182 7.73756 5.50287 7.80634 5.66883C7.87511 5.83478 7.89457 6.01814 7.86222 6.19556C7.82988 6.37298 7.7472 6.53644 7.62471 6.66513C7.50222 6.79382 7.34546 6.88193 7.17438 6.91823C7.00331 6.95453 6.82565 6.93739 6.66403 6.86898C6.5024 6.80058 6.36412 6.684 6.26679 6.5341C6.16946 6.38419 6.11747 6.20774 6.11745 6.0272C6.11742 5.78843 6.20819 5.55922 6.37018 5.38903C6.53217 5.21883 6.75239 5.1213 6.98333 5.11747Z" fill="#282828"/>
<path id="Vector_2" d="M6.98349 8.1775C5.87884 8.18392 4.82149 8.64174 4.04214 9.45107C3.26279 10.2604 2.82471 11.3555 2.82349 12.4975C2.82349 12.6265 2.87307 12.7503 2.96132 12.8415C3.04957 12.9327 3.16927 12.984 3.29407 12.984C3.41888 12.984 3.53858 12.9327 3.62683 12.8415C3.71508 12.7503 3.76466 12.6265 3.76466 12.4975C3.76466 11.6105 4.10552 10.7597 4.71226 10.1325C5.31899 9.50528 6.1419 9.15291 6.99996 9.15291C7.85801 9.15291 8.68092 9.50528 9.28766 10.1325C9.89439 10.7597 10.2353 11.6105 10.2353 12.4975C10.2353 12.6265 10.2848 12.7503 10.3731 12.8415C10.4613 12.9327 10.581 12.984 10.7058 12.984C10.8306 12.984 10.9503 12.9327 11.0386 12.8415C11.1268 12.7503 11.1764 12.6265 11.1764 12.4975C11.1758 11.9291 11.0668 11.3665 10.8557 10.8417C10.6446 10.3169 10.3355 9.84027 9.94611 9.43906C9.5567 9.03785 9.09461 8.71992 8.58626 8.50345C8.07791 8.28698 7.53327 8.17622 6.98349 8.1775Z" fill="#282828"/>
<path id="Vector_3" d="M21.1765 0H2.82353C2.07468 0 1.35651 0.307528 0.826993 0.854932C0.297478 1.40234 0 2.14477 0 2.91892L0 15.0811C0 15.8552 0.297478 16.5977 0.826993 17.1451C1.35651 17.6925 2.07468 18 2.82353 18H21.1765C21.9253 18 22.6435 17.6925 23.173 17.1451C23.7025 16.5977 24 15.8552 24 15.0811V2.91892C24 2.14477 23.7025 1.40234 23.173 0.854932C22.6435 0.307528 21.9253 0 21.1765 0ZM23.0588 15.0811C23.0588 15.5972 22.8605 16.0921 22.5075 16.4571C22.1545 16.822 21.6757 17.027 21.1765 17.027H2.82353C2.3243 17.027 1.84551 16.822 1.4925 16.4571C1.1395 16.0921 0.941176 15.5972 0.941176 15.0811V2.91892C0.941176 2.40282 1.1395 1.90786 1.4925 1.54293C1.84551 1.17799 2.3243 0.972973 2.82353 0.972973H21.1765C21.6757 0.972973 22.1545 1.17799 22.5075 1.54293C22.8605 1.90786 23.0588 2.40282 23.0588 2.91892V15.0811Z" fill="#282828"/>
<path id="Vector_4" d="M20.4045 6.77686H13.6798C13.555 6.77686 13.4353 6.82811 13.3471 6.91934C13.2588 7.01058 13.2092 7.13432 13.2092 7.26334C13.2092 7.39237 13.2588 7.51611 13.3471 7.60734C13.4353 7.69857 13.555 7.74983 13.6798 7.74983H20.4045C20.5293 7.74983 20.649 7.69857 20.7373 7.60734C20.8255 7.51611 20.8751 7.39237 20.8751 7.26334C20.8751 7.13432 20.8255 7.01058 20.7373 6.91934C20.649 6.82811 20.5293 6.77686 20.4045 6.77686Z" fill="#282828"/>
<path id="Vector_5" d="M20.4045 10.25H13.6798C13.555 10.25 13.4353 10.3013 13.3471 10.3925C13.2588 10.4837 13.2092 10.6075 13.2092 10.7365C13.2092 10.8655 13.2588 10.9893 13.3471 11.0805C13.4353 11.1717 13.555 11.223 13.6798 11.223H20.4045C20.5293 11.223 20.649 11.1717 20.7373 11.0805C20.8255 10.9893 20.8751 10.8655 20.8751 10.7365C20.8751 10.6075 20.8255 10.4837 20.7373 10.3925C20.649 10.3013 20.5293 10.25 20.4045 10.25Z" fill="#282828"/>
</g>
</g>
</svg>
