<svg width="24" height="24" viewBox="0 0 24 24" fill="none" xmlns="http://www.w3.org/2000/svg">
<g id="Frame" clip-path="url(#clip0_2_3223)">
<g id="Group">
<path id="Vector" d="M9.5 8H1.5C0.673 8 0 7.327 0 6.5V1.5C0 0.673 0.673 0 1.5 0H9.5C10.327 0 11 0.673 11 1.5V6.5C11 7.327 10.327 8 9.5 8ZM1.5 1C1.36739 1 1.24021 1.05268 1.14645 1.14645C1.05268 1.24021 1 1.36739 1 1.5V6.5C1 6.63261 1.05268 6.75979 1.14645 6.85355C1.24021 6.94732 1.36739 7 1.5 7H9.5C9.63261 7 9.75979 6.94732 9.85355 6.85355C9.94732 6.75979 10 6.63261 10 6.5V1.5C10 1.36739 9.94732 1.24021 9.85355 1.14645C9.75979 1.05268 9.63261 1 9.5 1H1.5ZM9.5 24H1.5C0.673 24 0 23.327 0 22.5V11.5C0 10.673 0.673 10 1.5 10H9.5C10.327 10 11 10.673 11 11.5V22.5C11 23.327 10.327 24 9.5 24ZM1.5 11C1.36739 11 1.24021 11.0527 1.14645 11.1464C1.05268 11.2402 1 11.3674 1 11.5V22.5C1 22.6326 1.05268 22.7598 1.14645 22.8536C1.24021 22.9473 1.36739 23 1.5 23H9.5C9.63261 23 9.75979 22.9473 9.85355 22.8536C9.94732 22.7598 10 22.6326 10 22.5V11.5C10 11.3674 9.94732 11.2402 9.85355 11.1464C9.75979 11.0527 9.63261 11 9.5 11H1.5ZM22.5 24H14.5C13.673 24 13 23.327 13 22.5V17.5C13 16.673 13.673 16 14.5 16H22.5C23.327 16 24 16.673 24 17.5V22.5C24 23.327 23.327 24 22.5 24ZM14.5 17C14.3674 17 14.2402 17.0527 14.1464 17.1464C14.0527 17.2402 14 17.3674 14 17.5V22.5C14 22.6326 14.0527 22.7598 14.1464 22.8536C14.2402 22.9473 14.3674 23 14.5 23H22.5C22.6326 23 22.7598 22.9473 22.8536 22.8536C22.9473 22.7598 23 22.6326 23 22.5V17.5C23 17.3674 22.9473 17.2402 22.8536 17.1464C22.7598 17.0527 22.6326 17 22.5 17H14.5ZM22.5 14H14.5C13.673 14 13 13.327 13 12.5V1.5C13 0.673 13.673 0 14.5 0H22.5C23.327 0 24 0.673 24 1.5V12.5C24 13.327 23.327 14 22.5 14ZM14.5 1C14.3674 1 14.2402 1.05268 14.1464 1.14645C14.0527 1.24021 14 1.36739 14 1.5V12.5C14 12.6326 14.0527 12.7598 14.1464 12.8536C14.2402 12.9473 14.3674 13 14.5 13H22.5C22.6326 13 22.7598 12.9473 22.8536 12.8536C22.9473 12.7598 23 12.6326 23 12.5V1.5C23 1.36739 22.9473 1.24021 22.8536 1.14645C22.7598 1.05268 22.6326 1 22.5 1H14.5Z" fill="#0A2472"/>
</g>
</g>
<defs>
<clipPath id="clip0_2_3223">
<rect width="24" height="24" fill="white"/>
</clipPath>
</defs>
</svg>
