<svg width="26" height="19" viewBox="0 0 26 19" fill="none" xmlns="http://www.w3.org/2000/svg">
<g id="Group">
<path id="Vector" d="M24.9844 1.27888C24.9829 1.27281 24.9797 1.26795 24.9779 1.26229C24.9622 1.21858 24.9426 1.17742 24.9196 1.13964C24.8849 1.09337 24.8439 1.0559 24.7986 1.02914C24.7636 1.01071 24.7262 1.00084 24.6883 1H1.31169C1.27374 1.00079 1.23623 1.01067 1.20104 1.02914C1.13121 1.06434 1.07376 1.1316 1.03958 1.21817C1.03307 1.23225 1.02724 1.24685 1.02213 1.26188C1.02026 1.26795 1.01714 1.27281 1.01558 1.27888C1.00532 1.31938 1.00006 1.36173 1 1.40436V17.5952C1 17.5993 1.00156 17.6021 1.00156 17.6062C1.00354 17.6353 1.00803 17.6641 1.01496 17.692C1.01717 17.7374 1.03162 17.7804 1.05579 17.8134C1.0677 17.8403 1.08204 17.8653 1.09849 17.8879C1.10036 17.8903 1.10099 17.8935 1.10317 17.896C1.11858 17.911 1.13507 17.924 1.15242 17.9348C1.16632 17.948 1.18102 17.9596 1.19636 17.9696C1.23296 17.9892 1.27211 17.9996 1.31169 18H24.6883C24.7279 17.9996 24.767 17.9892 24.8036 17.9696C24.8192 17.9595 24.8341 17.9477 24.8482 17.9344C24.8653 17.9236 24.8816 17.9107 24.8968 17.896C24.899 17.8935 24.8996 17.8903 24.9015 17.8879C24.918 17.8653 24.9323 17.8403 24.9442 17.8134C24.9547 17.7965 24.9641 17.7785 24.9723 17.7596C24.9779 17.7375 24.9821 17.7149 24.9847 17.692C24.9918 17.6641 24.9964 17.6353 24.9984 17.6062C24.9984 17.6021 25 17.5989 25 17.5952V1.40395C24.9999 1.36146 24.9946 1.31925 24.9844 1.27888ZM24.3766 16.5404L18.391 7.90402L24.3766 2.20376V16.5404ZM2.01143 17.1905L8.11429 8.38488L12.8155 12.8624C12.869 12.9133 12.9336 12.9407 13 12.9407C13.0664 12.9407 13.131 12.9133 13.1845 12.8624L17.886 8.38488L23.9886 17.1905H2.01143ZM1.62338 2.20376L7.60904 7.90402L1.62338 16.5404V2.20376ZM2.2639 1.80952H23.7361L17.9717 7.2989L17.4668 7.78017L13 12.0338L8.53351 7.77976L8.02826 7.2989L2.2639 1.80952Z" fill="#282828" stroke="#282828" stroke-width="0.2"/>
</g>
</svg>
