<svg width="26" height="26" viewBox="0 0 26 26" fill="none" xmlns="http://www.w3.org/2000/svg">
<g id="Group">
<path id="Vector" d="M25 17.4705V23.5513C25 24.3514 24.3514 25 23.5513 25H2.44869C1.64858 25 1 24.3514 1 23.5513V2.44869C1 1.64858 1.64858 1 2.44869 1H23.5513C24.3514 1 25 1.64858 25 2.44869V15.7804M6.96881 5.34608H25M1 5.34608H5.27866" stroke="#282828" stroke-width="0.8" stroke-miterlimit="10" stroke-linecap="round" stroke-linejoin="round"/>
<path id="Vector_2" d="M3.17332 3.89815C3.57337 3.89815 3.89767 3.57385 3.89767 3.17381C3.89767 2.77376 3.57337 2.44946 3.17332 2.44946C2.77328 2.44946 2.44897 2.77376 2.44897 3.17381C2.44897 3.57385 2.77328 3.89815 3.17332 3.89815Z" stroke="#282828" stroke-width="0.8" stroke-miterlimit="10" stroke-linecap="round" stroke-linejoin="round"/>
<path id="Vector_3" d="M6.07054 3.89815C6.47058 3.89815 6.79488 3.57385 6.79488 3.17381C6.79488 2.77376 6.47058 2.44946 6.07054 2.44946C5.67049 2.44946 5.34619 2.77376 5.34619 3.17381C5.34619 3.57385 5.67049 3.89815 6.07054 3.89815Z" stroke="#282828" stroke-width="0.8" stroke-miterlimit="10" stroke-linecap="round" stroke-linejoin="round"/>
<path id="Vector_4" d="M8.968 3.89815C9.36804 3.89815 9.69234 3.57385 9.69234 3.17381C9.69234 2.77376 9.36804 2.44946 8.968 2.44946C8.56795 2.44946 8.24365 2.77376 8.24365 3.17381C8.24365 3.57385 8.56795 3.89815 8.968 3.89815Z" stroke="#282828" stroke-width="0.8" stroke-miterlimit="10" stroke-linecap="round" stroke-linejoin="round"/>
<path id="Vector_5" d="M10.0888 9.89321L11.065 7.33008C11.0849 7.28131 11.154 7.28126 11.174 7.32999L12.1414 9.89321M10.3932 9.25486H11.8418M16.5862 7.29348V9.89321M17.9846 7.32627L16.6694 8.53525L18.0769 9.89321M15.1924 7.56071C15.1924 7.56071 14.7259 7.1686 14.1758 7.33428C13.6707 7.48645 13.6 8.06887 13.9654 8.30713C13.9654 8.30713 14.324 8.46711 14.7217 8.61382C15.6791 8.96696 15.2667 9.89321 14.496 9.89321C14.11 9.89321 13.7861 9.72419 13.59 9.50785M7.92226 7.29348H9.35796M8.63719 7.37649V9.89321M8.88245 11.8683H22.1022M8.88245 13.3169H18.4805M8.88245 16.2143H22.1022M8.88245 17.663H18.4805M8.88245 20.5604H22.1022M8.88245 22.0091H18.4805M6.00265 14.4568H4.37987C4.11317 14.4568 3.89697 14.2406 3.89697 13.9739V12.3511C3.89697 12.0844 4.11317 11.8682 4.37987 11.8682H6.00265C6.26935 11.8682 6.48554 12.0844 6.48554 12.3511V13.9739C6.48554 14.2406 6.2693 14.4568 6.00265 14.4568ZM6.00265 18.8029H4.37987C4.11317 18.8029 3.89697 18.5867 3.89697 18.32V16.6972C3.89697 16.4305 4.11317 16.2143 4.37987 16.2143H6.00265C6.26935 16.2143 6.48554 16.4305 6.48554 16.6972V18.32C6.48554 18.5867 6.2693 18.8029 6.00265 18.8029ZM6.00265 23.1489H4.37987C4.11317 23.1489 3.89697 22.9327 3.89697 22.666V21.0433C3.89697 20.7766 4.11317 20.5604 4.37987 20.5604H6.00265C6.26935 20.5604 6.48554 20.7766 6.48554 21.0433V22.666C6.48554 22.9327 6.2693 23.1489 6.00265 23.1489Z" stroke="#282828" stroke-width="0.8" stroke-miterlimit="10" stroke-linecap="round" stroke-linejoin="round"/>
</g>
</svg>
