<svg width="24" height="25" viewBox="0 0 24 25" fill="none" xmlns="http://www.w3.org/2000/svg">
<g id="Group">
<path id="Vector" d="M23.5385 0H5.37557C5.21267 0 5.10407 0.0631313 5.04977 0.105219L0.135747 3.8931C0.0542986 3.95623 0 4.06145 0 4.14562V24.6212C0 24.8316 0.217195 24.979 0.461539 25H23.5113C23.7828 25 23.9729 24.8316 24 24.6423V0.357744C24 0.147306 23.7828 0 23.5385 0ZM4.91403 1.24158V3.78788H1.62896L4.91403 1.24158ZM23.0498 24.2635H0.950226V4.52441H5.37557C5.64706 4.52441 5.8371 4.35606 5.86425 4.16667V0.736532H23.0498V24.2635Z" fill="#282828"/>
<path id="Vector_2" d="M8.52499 4.52467H15.4752C15.7467 4.52467 15.9639 4.35632 15.9639 4.14588C15.9639 3.93544 15.7467 3.76709 15.4752 3.76709H8.52499C8.2535 3.76709 8.03631 3.93544 8.03631 4.14588C8.03631 4.35632 8.2535 4.52467 8.52499 4.52467ZM10.9141 13.2368H8.90508C8.63359 13.2368 8.4164 13.4051 8.4164 13.6156V20.8336C8.4164 21.044 8.63359 21.1913 8.87794 21.2124H10.9141C11.1856 21.2124 11.3757 21.044 11.4028 20.8546V13.6156C11.4028 13.4051 11.1856 13.2368 10.9141 13.2368ZM10.4526 20.4758H9.36662V13.9733H10.4254L10.4526 20.4758ZM15.0951 16.0146H13.0861C12.8146 16.0146 12.5974 16.1829 12.5974 16.3934V20.8336C12.5974 21.044 12.8146 21.1913 13.0589 21.2124H15.068C15.3395 21.2124 15.5295 21.044 15.5567 20.8546V16.3934C15.5838 16.1829 15.3666 16.0146 15.0951 16.0146ZM14.6336 20.4758H13.5748V16.7511H14.6336V20.4758ZM6.70599 16.0146H4.69694C4.42545 16.0146 4.20825 16.1829 4.20825 16.3934V20.8336C4.20825 21.044 4.42545 21.1913 4.66979 21.2124H6.67884C6.95033 21.2124 7.14038 21.044 7.16753 20.8546V16.3934C7.19468 16.1829 6.97748 16.0146 6.70599 16.0146ZM6.24445 20.4758H5.18563V16.7511H6.24445V20.4758ZM19.3033 13.2368H17.2942C17.0227 13.2368 16.8055 13.4051 16.8055 13.6156V20.8336C16.8055 21.044 17.0227 21.1913 17.2671 21.2124H19.2761C19.5476 21.2124 19.7377 21.044 19.7648 20.8546V13.6156C19.792 13.4051 19.5748 13.2368 19.3033 13.2368ZM18.8417 20.4758H17.7829V13.9733H18.8417V20.4758ZM19.3033 11.1745H4.69694C4.42545 11.1745 4.20825 11.3428 4.20825 11.5533C4.20825 11.7637 4.42545 11.9321 4.69694 11.9321H19.3033C19.5748 11.9321 19.792 11.7637 19.792 11.5533C19.792 11.3428 19.5748 11.1745 19.3033 11.1745ZM19.3033 8.71238H4.69694C4.42545 8.71238 4.20825 8.88073 4.20825 9.09116C4.20825 9.3016 4.42545 9.46995 4.69694 9.46995H19.3033C19.5748 9.46995 19.792 9.3016 19.792 9.09116C19.792 8.88073 19.5748 8.71238 19.3033 8.71238ZM4.2354 6.62904C4.2354 6.83948 4.4526 6.98679 4.69694 7.00783H19.3033C19.5748 7.00783 19.792 6.83948 19.792 6.62904C19.792 6.4186 19.5748 6.25025 19.3033 6.25025H4.69694C4.42545 6.25025 4.2354 6.4186 4.2354 6.62904Z" fill="#282828"/>
</g>
</svg>
