<svg width="26" height="26" viewBox="0 0 26 26" fill="none" xmlns="http://www.w3.org/2000/svg">
<g id="Group">
<path id="Vector" d="M2.2029 9.82809C1.98777 9.57586 2.00621 9.18641 2.24403 8.9583L7.85858 3.57225C7.96513 3.47003 8.10362 3.41335 8.24729 3.41314C8.39095 3.41293 8.52959 3.46921 8.6364 3.57112L11.8246 6.61298L15.9557 2.23165H15.8004C15.4797 2.23165 15.2197 1.95591 15.2197 1.61582C15.2197 1.27574 15.4797 1 15.8004 1H17.3575C17.6782 1 17.9381 1.27574 17.9381 1.61582V3.26582C17.9381 3.60591 17.6782 3.88165 17.3575 3.88165C17.0368 3.88165 16.7769 3.60591 16.7769 3.26582V3.10258L12.2563 7.89697C12.038 8.12852 11.687 8.13843 11.4574 7.91935L8.24911 4.85829L3.02302 9.87166C2.91642 9.97422 2.77761 10.031 2.63369 10.0308C2.5525 10.0309 2.4722 10.0129 2.39799 9.97801C2.32377 9.94309 2.25731 9.89201 2.2029 9.82809ZM23.1817 19.2368H18.6201V14.3974C18.6201 14.3157 18.5895 14.2374 18.5351 14.1796C18.4806 14.1219 18.4068 14.0894 18.3298 14.0894C15.4936 14.0894 13.1861 16.5367 13.1861 19.5447C13.1861 22.5528 15.4936 25 18.3298 25C21.166 25 23.472 22.5528 23.472 19.5447C23.472 19.4631 23.4414 19.3847 23.387 19.327C23.3326 19.2692 23.2587 19.2368 23.1817 19.2368ZM19.8578 12.4689C19.7808 12.4689 19.7069 12.5013 19.6525 12.5591C19.598 12.6168 19.5674 12.6952 19.5674 12.7768V17.9242C19.5674 18.0058 19.598 18.0842 19.6525 18.1419C19.7069 18.1997 19.7808 18.2321 19.8578 18.2321H24.7097C24.7867 18.2321 24.8605 18.1997 24.915 18.1419C24.9694 18.0842 25 18.0058 25 17.9242C25 14.9161 22.6932 12.4689 19.8578 12.4689ZM14.9294 7.14474C14.8524 7.14474 14.7785 7.17718 14.7241 7.23493C14.6697 7.29267 14.6391 7.37099 14.6391 7.45266V14.1266C15.5036 13.4623 16.5325 13.0248 17.6478 12.897V7.45266C17.6478 7.37099 17.6172 7.29267 17.5628 7.23493C17.5083 7.17718 17.4345 7.14474 17.3575 7.14474H14.9294ZM13.5487 15.1904V11.1135C13.5487 11.0319 13.5181 10.9535 13.4637 10.8958C13.4092 10.8381 13.3354 10.8056 13.2584 10.8056H10.8303C10.7533 10.8056 10.6795 10.8381 10.625 10.8958C10.5706 10.9535 10.54 11.0319 10.54 11.1135V18.9288H9.44965V9.21017C9.44965 9.1285 9.41906 9.05019 9.36461 8.99244C9.31017 8.9347 9.23632 8.90225 9.15932 8.90225H6.73121C6.65421 8.90225 6.58037 8.9347 6.52592 8.99244C6.47147 9.05019 6.44089 9.1285 6.44089 9.21017V18.9288H5.35053V13.0817C5.35053 13 5.31994 12.9217 5.2655 12.864C5.21105 12.8062 5.13721 12.7738 5.06021 12.7738H2.63355C2.55655 12.7738 2.48271 12.8062 2.42826 12.864C2.37381 12.9217 2.34323 13 2.34323 13.0817V18.9288H1.58065C1.25998 18.9288 1 19.2046 1 19.5447C1 19.8848 1.25998 20.1605 1.58065 20.1605H12.0518C12.034 19.9558 12.025 19.7503 12.0248 19.5447C12.0248 17.883 12.5994 16.3612 13.5487 15.1904H13.5487Z" stroke="#282828" stroke-width="0.6"/>
</g>
</svg>
